<svg width="22" height="20" viewBox="0 0 22 20" fill="none" xmlns="http://www.w3.org/2000/svg">
<path fill-rule="evenodd" clip-rule="evenodd" d="M18.2194 11.6046C19.1667 11.5958 19.9421 10.8626 19.9514 9.96696C19.9607 9.07129 19.2003 8.35233 18.2531 8.36112L12.2502 8.4168L12.309 2.74065C12.3183 1.84498 11.558 1.12601 10.6107 1.1348C9.66349 1.14359 8.88807 1.8768 8.87878 2.77247L8.81989 8.44862L2.8169 8.5043C1.86966 8.51309 1.09424 9.2463 1.08494 10.142C1.07565 11.0376 1.83601 11.7566 2.78325 11.7478L8.78624 11.6921L8.72735 17.3683C8.71805 18.264 9.47841 18.9829 10.4257 18.9741C11.3729 18.9654 12.1483 18.2322 12.1576 17.3365L12.2165 11.6603L18.2194 11.6046Z" fill="#144C5F"/>
</svg>
